# Blender v2.71 (sub 0) OBJ File: 'playerShip.blend'
# www.blender.org
v -5.000000 0.000000 0.500000
v 5.000000 0.000000 0.500000
v 0.000000 0.572246 1.243477
v 0.000000 1.000000 0.500000
v 0.000000 -0.572246 1.243477
v 0.000000 -1.000000 0.500000
v -2.265723 0.000000 -0.833333
v 4.000000 0.000000 -0.833333
v 0.000000 0.343518 -1.313144
v 0.000000 0.800000 -0.833333
v 0.000000 -0.343518 -1.313144
v 0.000000 -0.800000 -0.833333
vn 0.147100 0.000000 0.989100
vn 0.170800 -0.854000 0.491400
vn 0.000000 0.000000 -1.000000
vn 0.170800 0.854000 0.491400
vn -0.170800 -0.854000 0.491400
vn -0.147100 0.000000 0.989100
vn -0.170800 0.854000 0.491400
vn -0.119100 0.000000 0.992900
vn -0.143400 0.717000 0.682200
vn -0.143400 -0.717000 0.682200
vn 0.247800 0.701900 0.667800
vn 0.207200 0.000000 0.978300
vn 0.247800 -0.701900 0.667800
s off
f 2//1 3//1 5//1
f 2//2 5//2 6//2
f 6//3 4//3 2//3
f 3//4 2//4 4//4
f 5//5 1//5 6//5
f 5//6 3//6 1//6
f 1//7 3//7 4//7
f 1//3 4//3 6//3
f 8//8 9//8 11//8
f 8//9 11//9 12//9
f 12//3 10//3 8//3
f 9//10 8//10 10//10
f 11//11 7//11 12//11
f 11//12 9//12 7//12
f 7//13 9//13 10//13
f 7//3 10//3 12//3
