# Blender v2.71 (sub 0) OBJ File: 'playerShip.blend'
# www.blender.org
v -0.395250 0.271517 -0.104012
v -0.123733 -0.000000 -0.104012
v -0.395250 0.000000 -0.923489
v -0.395250 -0.271517 -0.104012
v -0.395250 0.000000 0.715464
v -0.666767 0.000000 -0.104012
vn -0.688500 0.688500 0.228100
vn 0.688500 0.688500 0.228100
vn 0.688500 -0.688500 0.228100
vn -0.688500 -0.688500 0.228100
vn -0.688500 0.688500 -0.228100
vn 0.688500 0.688500 -0.228100
vn 0.688500 -0.688500 -0.228100
vn -0.688500 -0.688500 -0.228100
s off
f 6//1 5//1 1//1
f 1//2 5//2 2//2
f 2//3 5//3 4//3
f 4//4 5//4 6//4
f 3//5 6//5 1//5
f 3//6 1//6 2//6
f 3//7 2//7 4//7
f 3//8 4//8 6//8
