# Blender v2.71 (sub 0) OBJ File: 'playerShip.blend'
# www.blender.org
v -0.058445 0.000000 -0.069767
v 0.861002 0.919447 -0.069767
v 1.780448 0.000000 -0.069767
v 0.861002 -0.919447 -0.069767
v 0.861002 0.000000 -0.989214
v 0.861002 0.000000 0.849679
v 0.171417 -0.689585 -0.069767
v 0.171417 0.000000 0.619817
v 0.171417 0.689585 -0.069767
v 0.171417 0.000000 -0.759352
v 0.861002 0.689585 0.619817
v 1.550587 0.689585 -0.069767
v 0.861002 0.689585 -0.759352
v 1.550587 0.000000 0.619817
v 1.550587 -0.689585 -0.069767
v 1.550587 0.000000 -0.759352
v 0.861002 -0.689585 0.619817
v 0.861002 -0.689585 -0.759352
v 0.350198 -0.510804 -0.580571
v 0.350198 0.510804 -0.580571
v 1.371805 0.510804 -0.580571
v 1.371805 -0.510804 -0.580571
v 0.350198 -0.510804 0.441036
v 0.350198 0.510804 0.441036
v 1.371805 0.510804 0.441036
v 1.371805 -0.510804 0.441036
vn -0.870400 -0.348200 0.348200
vn -0.870400 0.348200 0.348200
vn -0.870400 0.348200 -0.348200
vn -0.870400 -0.348200 -0.348200
vn -0.348200 0.870400 0.348200
vn 0.348200 0.870400 0.348200
vn 0.348200 0.870400 -0.348200
vn -0.348200 0.870400 -0.348200
vn 0.870400 0.348200 0.348200
vn 0.870400 -0.348200 0.348200
vn 0.870400 -0.348200 -0.348200
vn 0.870400 0.348200 -0.348200
vn 0.348200 -0.870400 0.348200
vn -0.348200 -0.870400 0.348200
vn -0.348200 -0.870400 -0.348200
vn 0.348200 -0.870400 -0.348200
vn -0.348200 -0.348200 -0.870400
vn -0.348200 0.348200 -0.870400
vn 0.348200 0.348200 -0.870400
vn 0.348200 -0.348200 -0.870400
vn 0.348200 -0.348200 0.870400
vn 0.348200 0.348200 0.870400
vn -0.348200 0.348200 0.870400
vn -0.348200 -0.348200 0.870400
s off
f 1//1 7//1 23//1 8//1
f 1//2 8//2 24//2 9//2
f 1//3 9//3 20//3 10//3
f 1//4 10//4 19//4 7//4
f 2//5 9//5 24//5 11//5
f 2//6 11//6 25//6 12//6
f 2//7 12//7 21//7 13//7
f 2//8 13//8 20//8 9//8
f 3//9 12//9 25//9 14//9
f 3//10 14//10 26//10 15//10
f 3//11 15//11 22//11 16//11
f 3//12 16//12 21//12 12//12
f 4//13 15//13 26//13 17//13
f 4//14 17//14 23//14 7//14
f 4//15 7//15 19//15 18//15
f 4//16 18//16 22//16 15//16
f 5//17 18//17 19//17 10//17
f 5//18 10//18 20//18 13//18
f 5//19 13//19 21//19 16//19
f 5//20 16//20 22//20 18//20
f 6//21 17//21 26//21 14//21
f 6//22 14//22 25//22 11//22
f 6//23 11//23 24//23 8//23
f 6//24 8//24 23//24 17//24
