# Blender v2.71 (sub 0) OBJ File: 'playerShip.blend'
# www.blender.org
v -2.327209 -0.730318 -0.000000
v -1.719301 -1.187637 0.000000
v -2.327208 -1.300000 -0.569683
v -1.719300 -1.300000 -0.112363
v -2.327209 -1.869682 -0.000000
v -1.719301 -1.412363 0.000000
v -2.327209 -1.300000 0.569682
v -1.719301 -1.300000 0.112364
vn 0.469600 0.624300 -0.624300
vn 0.469600 -0.624300 -0.624300
vn 1.000000 0.000000 0.000000
vn 0.469600 0.624300 0.624300
vn 0.469600 -0.624300 0.624300
vn -1.000000 0.000000 -0.000000
s off
f 1//1 2//1 4//1 3//1
f 3//2 4//2 6//2 5//2
f 4//3 2//3 8//3 6//3
f 7//4 8//4 2//4 1//4
f 5//5 6//5 8//5 7//5
f 1//6 3//6 5//6 7//6
v -2.327209 1.869682 -0.000000
v -1.719301 1.412363 0.000000
v -2.327208 1.300000 -0.569683
v -1.719300 1.300000 -0.112363
v -2.327209 0.730318 -0.000000
v -1.719301 1.187637 0.000000
v -2.327209 1.300000 0.569682
v -1.719301 1.300000 0.112364
vn 0.469600 0.624300 -0.624300
vn 0.469600 -0.624300 -0.624300
vn 1.000000 0.000000 0.000000
vn 0.469600 0.624300 0.624300
vn 0.469600 -0.624300 0.624300
vn -1.000000 0.000000 -0.000000
s off
f 9//7 10//7 12//7 11//7
f 11//8 12//8 14//8 13//8
f 12//9 10//9 16//9 14//9
f 15//10 16//10 10//10 9//10
f 13//11 14//11 16//11 15//11
f 9//12 11//12 13//12 15//12
v -2.327209 0.569682 -0.000000
v -1.719301 0.112363 0.000000
v -2.327208 -0.000000 -0.569683
v -1.719300 -0.000000 -0.112363
v -2.327209 -0.569682 -0.000000
v -1.719301 -0.112363 0.000000
v -2.327209 0.000000 0.569682
v -1.719301 -0.000000 0.112364
vn 0.469600 0.624300 -0.624300
vn 0.469600 -0.624300 -0.624300
vn 1.000000 0.000000 0.000000
vn 0.469600 0.624300 0.624300
vn 0.469600 -0.624300 0.624300
vn -1.000000 0.000000 -0.000000
s off
f 17//13 18//13 20//13 19//13
f 19//14 20//14 22//14 21//14
f 20//15 18//15 24//15 22//15
f 23//16 24//16 18//16 17//16
f 21//17 22//17 24//17 23//17
f 17//18 19//18 21//18 23//18
v -1.789088 -1.778093 -0.569634
v -1.789088 1.778093 -0.569634
v -1.789088 -1.778093 0.513284
v -1.789088 1.778093 0.513284
v -0.549479 0.000000 0.513284
vn -1.000000 0.000000 0.000000
vn 0.820300 0.571900 0.000000
vn 0.820300 -0.571900 0.000000
vn 0.657900 0.000000 -0.753100
vn 0.000000 0.000000 1.000000
s off
f 27//19 28//19 26//19 25//19
f 28//20 29//20 26//20
f 29//21 27//21 25//21
f 25//22 26//22 29//22
f 29//23 28//23 27//23
